<svg xmlns="http://www.w3.org/2000/svg" viewBox="0 0 100 15.412401732406117" xmlns:xlink="http://www.w3.org/1999/xlink" version="1.1"  ><g transform="translate(40.52442542776259 7.629138857541028) scale(0.12012382225282527)" id="horizontalContainerlessSvgTemplate"><g fill="#FFFFFF"><g transform="translate(-7.88485607008761 53.998748435544435) scale(1.7382839660686968)" fill="#FFFFFF"><g id="line1" fill="#FFFFFF"><path d="M8.424-56.304L8.424 0L7.128 0L7.128-56.304ZM11.016-56.304L11.016 0L9.720 0L9.720-56.304ZM13.608-56.304L13.608 0L12.312 0L12.312-56.304ZM16.200-56.304L16.200 0L14.904 0L14.904-56.304ZM5.832-56.304L5.832 0L4.536 0L4.536-56.304Z"></path><path d="M30.096-56.304L62.496 0L60.984 0L28.584-56.304ZM27.144-56.304L59.544 0L57.960 0L25.632-56.304ZM24.120-56.304L56.520 0L55.008 0L22.680-56.304ZM57.744-13.464L59.040-11.232L59.040-56.304L60.336-56.304L60.336-9.000L61.632-6.768L61.632-56.304L62.928-56.304L62.928-4.464L64.224-2.304L64.224-56.304L65.520-56.304L65.520 0L63.936 0L31.536-56.304L32.976-56.304L53.856-20.160L53.856-56.304L55.152-56.304L55.152-17.928L56.448-15.768L56.448-56.304L57.744-56.304ZM22.176-51.840L20.880-54.144L20.880 0L19.584 0L19.584-56.304L20.952-56.304L53.568 0L51.984 0L31.248-36.072L31.248 0L29.952 0L29.952-38.304L28.656-40.536L28.656 0L27.360 0L27.360-42.768L26.064-45.072L26.064 0L24.768 0L24.768-47.376L23.472-49.608L23.472 0L22.176 0Z"></path><path d="M99.072-45.792C96.696-51.624 91.008-55.656 84.600-55.656C80.352-55.656 76.752-54.144 73.656-51.048C70.560-48.024 69.048-44.352 69.048-40.104C69.048-36.072 70.416-32.616 73.080-29.664C75.816-26.784 79.200-25.128 83.160-24.768C87.408-24.408 90.360-21.240 90.360-17.208C90.360-13.104 87.048-9.720 82.944-9.720C79.848-9.720 77.616-11.160 76.248-14.040L77.328-14.688C78.336-12.240 80.208-11.016 82.944-11.016C86.328-11.016 89.064-13.824 89.064-17.208C89.064-20.448 86.400-23.184 83.160-23.472C78.912-23.832 75.240-25.560 72.288-28.728C69.336-31.968 67.824-35.712 67.824-40.104C67.824-44.784 69.480-48.744 72.720-51.984C75.960-55.296 79.920-56.952 84.600-56.952C91.512-56.952 97.560-52.632 100.152-46.512ZM94.536-43.200C93.168-47.520 89.208-50.472 84.600-50.472C81.792-50.472 79.344-49.464 77.256-47.376C75.240-45.360 74.232-42.912 74.232-40.104C74.232-37.440 75.168-35.064 76.968-33.120C78.768-31.176 81.000-30.024 83.664-29.808C87.120-29.520 89.928-28.152 92.160-25.776C94.392-23.400 95.544-20.592 95.544-17.208C95.544-13.752 94.320-10.800 91.800-8.280C89.352-5.760 86.400-4.536 82.944-4.536C78.264-4.536 74.016-7.056 71.928-11.016L73.008-11.736C75.168-7.776 78.480-5.832 82.944-5.832C86.040-5.832 88.704-6.912 90.936-9.144C93.168-11.376 94.248-14.112 94.248-17.208C94.248-20.160 93.168-22.752 91.080-24.912C88.992-27.144 86.544-28.368 83.592-28.584C80.640-28.800 78.192-30.024 76.104-32.256C74.016-34.488 73.008-37.080 73.008-40.104C73.008-43.344 74.160-46.080 76.392-48.312C78.624-50.616 81.360-51.768 84.600-51.768C89.568-51.768 93.888-48.456 95.544-43.848ZM89.712-40.392C89.496-43.056 87.264-45.288 84.600-45.288C81.792-45.288 79.488-42.912 79.488-40.104C79.488-37.296 81.648-35.136 84.312-34.920C88.776-34.560 92.592-32.760 95.760-29.520C99.072-26.064 100.728-21.960 100.728-17.208C100.728-12.312 99.000-8.136 95.472-4.608C92.016-1.152 87.840 0.576 82.944 0.576C76.608 0.576 70.848-2.808 67.608-8.064L68.760-8.784C71.928-3.384 76.680-0.720 82.944-0.720C87.480-0.720 91.368-2.304 94.608-5.544C97.848-8.784 99.432-12.672 99.432-17.208C99.432-21.672 97.920-25.416 94.968-28.512C92.016-31.608 88.416-33.336 84.168-33.696C80.640-33.984 78.120-36.648 78.120-40.104C78.120-43.776 81.072-46.584 84.600-46.584C87.768-46.584 90.504-44.136 91.008-41.184ZM92.160-41.832C91.512-45.288 88.272-47.880 84.600-47.880C82.512-47.880 80.640-47.088 79.128-45.576C77.616-44.064 76.824-42.192 76.824-40.104C76.824-36.072 79.920-32.760 84.024-32.400C87.912-32.040 91.224-30.456 93.960-27.576C96.768-24.768 98.136-21.312 98.136-17.208C98.136-13.032 96.624-9.432 93.672-6.408C90.720-3.456 87.120-1.944 82.944-1.944C77.328-1.944 72.936-4.464 69.768-9.504L70.848-10.296C73.224-6.048 77.832-3.240 82.944-3.240C86.760-3.240 90.072-4.608 92.736-7.344C95.472-10.080 96.840-13.392 96.840-17.208C96.840-20.880 95.616-24.048 93.168-26.640C90.720-29.304 87.624-30.744 83.880-31.104C81.576-31.320 79.632-32.328 77.976-34.056C76.392-35.784 75.600-37.800 75.600-40.104C75.600-42.624 76.464-44.712 78.192-46.512C79.992-48.312 82.080-49.176 84.600-49.176C88.704-49.176 92.232-46.440 93.312-42.480ZM96.768-44.424C95.040-49.536 90.072-53.064 84.600-53.064C81.072-53.064 77.976-51.768 75.456-49.248C72.936-46.728 71.640-43.632 71.640-40.104C71.640-36.720 72.792-33.840 75.024-31.392C77.328-28.944 80.136-27.576 83.376-27.288C86.040-27.072 88.344-25.992 90.144-24.048C92.016-22.176 92.952-19.872 92.952-17.208C92.952-14.400 91.944-12.024 90.000-10.080C88.056-8.136 85.752-7.128 82.944-7.128C78.840-7.128 75.888-8.928 74.088-12.456L75.168-13.248C76.824-10.008 79.416-8.424 82.944-8.424C85.320-8.424 87.408-9.288 89.064-11.016C90.792-12.744 91.656-14.832 91.656-17.208C91.656-19.512 90.864-21.528 89.208-23.184C87.624-24.912 85.680-25.848 83.304-26.064C79.704-26.352 76.680-27.864 74.160-30.528C71.712-33.192 70.488-36.432 70.488-40.104C70.488-44.064 71.856-47.376 74.592-50.184C77.328-52.992 80.640-54.360 84.600-54.360C90.648-54.360 95.832-50.616 97.848-45.144Z"></path><path d="M102.456-56.304L136.872-56.304L136.872-55.008L102.456-55.008ZM102.456-53.712L136.872-53.712L136.872-52.416L102.456-52.416ZM102.456-51.120L136.872-51.120L136.872-49.824L102.456-49.824ZM102.456-48.528L136.872-48.528L136.872-47.232L102.456-47.232ZM116.424-44.712L115.200-44.712L115.200 0L113.904 0L113.904-44.712L102.456-44.712L102.456-45.936L136.872-45.936L136.872-44.712L125.496-44.712L125.496 0L124.200 0L124.200-44.712L122.904-44.712L122.904 0L121.608 0L121.608-44.712L120.312-44.712L120.312 0L119.016 0L119.016-44.712L117.720-44.712L117.720 0L116.424 0Z"></path><path d="M144.000-56.304L144.000 0L142.704 0L142.704-56.304ZM146.592-56.304L146.592 0L145.296 0L145.296-56.304ZM149.184-56.304L149.184 0L147.888 0L147.888-56.304ZM151.776-56.304L151.776 0L150.480 0L150.480-56.304ZM141.408-56.304L141.408 0L140.112 0L140.112-56.304Z"></path><path d="M165.672-56.304L198.072 0L196.560 0L164.160-56.304ZM162.720-56.304L195.120 0L193.536 0L161.208-56.304ZM159.696-56.304L192.096 0L190.584 0L158.256-56.304ZM193.320-13.464L194.616-11.232L194.616-56.304L195.912-56.304L195.912-9.000L197.208-6.768L197.208-56.304L198.504-56.304L198.504-4.464L199.800-2.304L199.800-56.304L201.096-56.304L201.096 0L199.512 0L167.112-56.304L168.552-56.304L189.432-20.160L189.432-56.304L190.728-56.304L190.728-17.928L192.024-15.768L192.024-56.304L193.320-56.304ZM157.752-51.840L156.456-54.144L156.456 0L155.160 0L155.160-56.304L156.528-56.304L189.144 0L187.560 0L166.824-36.072L166.824 0L165.528 0L165.528-38.304L164.232-40.536L164.232 0L162.936 0L162.936-42.768L161.640-45.072L161.640 0L160.344 0L160.344-47.376L159.048-49.608L159.048 0L157.752 0Z"></path><path d="M208.440-56.304L208.440 0L207.144 0L207.144-56.304ZM211.032-56.304L211.032 0L209.736 0L209.736-56.304ZM213.624-56.304L213.624 0L212.328 0L212.328-56.304ZM216.216-56.304L216.216 0L214.920 0L214.920-56.304ZM205.848-56.304L205.848 0L204.552 0L204.552-56.304Z"></path><path d="M219.024-56.304L253.440-56.304L253.440-55.008L219.024-55.008ZM219.024-53.712L253.440-53.712L253.440-52.416L219.024-52.416ZM219.024-51.120L253.440-51.120L253.440-49.824L219.024-49.824ZM219.024-48.528L253.440-48.528L253.440-47.232L219.024-47.232ZM232.992-44.712L231.768-44.712L231.768 0L230.472 0L230.472-44.712L219.024-44.712L219.024-45.936L253.440-45.936L253.440-44.712L242.064-44.712L242.064 0L240.768 0L240.768-44.712L239.472-44.712L239.472 0L238.176 0L238.176-44.712L236.880-44.712L236.880 0L235.584 0L235.584-44.712L234.288-44.712L234.288 0L232.992 0Z"></path><path d="M257.976-56.304L257.976 0L256.680 0L256.680-56.304ZM265.752-56.304L265.752 0L264.456 0L264.456-56.304ZM263.160-56.304L263.160 0L261.864 0L261.864-56.304ZM260.568-56.304L260.568 0L259.272 0L259.272-56.304ZM268.344-24.984L268.344-23.688L283.968-23.688L283.968-22.392L268.344-22.392L268.344-11.664L289.368-11.664L289.368-10.368L268.344-10.368L268.344-9.072L289.368-9.072L289.368-7.776L268.344-7.776L268.344-6.480L289.368-6.480L289.368-5.184L268.344-5.184L268.344-3.888L289.368-3.888L289.368-2.592L268.344-2.592L268.344-1.296L289.368-1.296L289.368 0L267.048 0L267.048-56.304L289.368-56.304L289.368-55.008L268.344-55.008L268.344-53.712L289.368-53.712L289.368-52.416L268.344-52.416L268.344-51.120L289.368-51.120L289.368-49.824L268.344-49.824L268.344-48.528L289.368-48.528L289.368-47.232L268.344-47.232L268.344-45.936L289.368-45.936L289.368-44.712L268.344-44.712L268.344-34.056L283.968-34.056L283.968-32.760L268.344-32.760L268.344-31.464L283.968-31.464L283.968-30.168L268.344-30.168L268.344-28.872L283.968-28.872L283.968-27.576L268.344-27.576L268.344-26.280L283.968-26.280L283.968-24.984Z"></path></g></g><g transform="translate(-339.7917433527744 -155.28165475783888) scale(2.4362990473925388)" id="logomark"><g fill="#FFFFFF"><path d="M126.592 58.164l-35.41-20.387a.815.815 0 0 0-.812 0L64.278 52.8 38.185 37.777a.812.812 0 0 0-.812 0L1.686 58.164c-.251.146-.686.414-.686.704v10.263c0 .291.434.56.686.704l35.549 20.388a.944.944 0 0 0 .88 0L64.243 75.2l26.109 15.023a.85.85 0 0 0 .414.108.827.827 0 0 0 .41-.108l35.413-20.388a.813.813 0 0 0 .411-.704V58.868a.815.815 0 0 0-.408-.704zM3 68.661v-8.954l33.998 19.995.004.035.607 8.799L3 68.661zm35.081 19.874L39 79.748v-.004l16.475-9.616 7.174 4.132-24.568 14.275zM64.69 73.563l-.008-.005-17.823-10.262-8.676-4.995a.8.8 0 0 0-.341-.1l.642-8.114 51.517 29.661.695 8.788L64.69 73.563zm-26.912-13.62L44.825 64l-7.047 4.057L30.732 64l7.046-4.057zm-8.674 3.119l-7.283-4.193 15.253-8.781.642 8.114a.808.808 0 0 0-.342.1l-8.27 4.76zm61.682 15.262L38.42 48.174a.814.814 0 0 0-1.276-.003l-4.688 2.7c-2.847 1.638-5.692 3.277-8.538 4.916l-2.663 1.533c-.292.168-.583.339-.877.505-.289.163-.72.562-.711.927.008.369.422.536.698.712.528.338 1.077.647 1.614.971l4.328 2.603 2.393 1.438 8.674 5.109c.126.072.266.165.405.165s.28-.008.405-.079l8.271-4.747 7.278 4.197-16.114 9.195L3.422 59.412 37.741 39.42l52.627 30.278a.806.806 0 0 0 .407.108c.14 0 .28.172.404.1l8.677-4.787 1.704-.997 3.922-2.292 1.859-1.087c.246-.144.492-.29.739-.432.312-.18.788-.375.968-.705.146-.271.161-.598.106-.894-.005-.025-.01-.051-.017-.076-.007-.023-.018-.047-.027-.07a.946.946 0 0 0-.046-.104l-.026-.037c-.017-.024-.033-.049-.052-.072l-.054-.058c-.019-.018-.037-.036-.058-.053-.022-.02-.047-.036-.071-.052-.014-.009-.024-.019-.037-.027l-17.354-9.99a.814.814 0 0 0-1.274-.003l-16.951 9.76-7.282-4.192L90.773 39.42l34.465 19.841-34.45 19.063.043.025-.045-.025zm7.035-14.325l-7.046 4.058-7.047-4.058 7.047-4.057 7.046 4.057zM90.838 58.2l.643-8.113 15.253 8.781-7.283 4.194L91.18 58.3a.8.8 0 0 0-.342-.1zm-.469.101l-8.27 4.761-7.283-4.193 15.251-8.781.644 8.113a.79.79 0 0 0-.342.1zm35.337 10.66l-34.54 19.575.539-8.799 34.001-20.057v9.281z"></path></g></g></g></g></svg>